<svg xmlns="http://www.w3.org/2000/svg" xmlns:xlink="http://www.w3.org/1999/xlink" version="1.1" width="3300" height="2200">
 <!--glyph: "", point size: 100.0, font version: "17.1d1e1", template writer version: "65.1"-->
<style>

.hierarchical-1:primary {fill:#262626;}
.SFSymbolsPreview262626 {fill:#262626;}
</style>
 <g id="Notes">
  <rect height="2200" id="artboard" style="fill:white;opacity:1" width="3300" x="0" y="0"/>
  <line style="fill:none;stroke:black;opacity:1;stroke-width:0.5;" x1="263" x2="3036" y1="292" y2="292"/>
  <text style="stroke:none;fill:black;font-family:sans-serif;font-size:13;font-weight:bold;" transform="matrix(1 0 0 1 263 322)">Weight/Scale Variations</text>
  <text style="stroke:none;fill:black;font-family:sans-serif;font-size:13;text-anchor:middle;" transform="matrix(1 0 0 1 559.711 322)">Ultralight</text>
  <text style="stroke:none;fill:black;font-family:sans-serif;font-size:13;text-anchor:middle;" transform="matrix(1 0 0 1 856.422 322)">Thin</text>
  <text style="stroke:none;fill:black;font-family:sans-serif;font-size:13;text-anchor:middle;" transform="matrix(1 0 0 1 1153.13 322)">Light</text>
  <text style="stroke:none;fill:black;font-family:sans-serif;font-size:13;text-anchor:middle;" transform="matrix(1 0 0 1 1449.84 322)">Regular</text>
  <text style="stroke:none;fill:black;font-family:sans-serif;font-size:13;text-anchor:middle;" transform="matrix(1 0 0 1 1746.56 322)">Medium</text>
  <text style="stroke:none;fill:black;font-family:sans-serif;font-size:13;text-anchor:middle;" transform="matrix(1 0 0 1 2043.27 322)">Semibold</text>
  <text style="stroke:none;fill:black;font-family:sans-serif;font-size:13;text-anchor:middle;" transform="matrix(1 0 0 1 2339.98 322)">Bold</text>
  <text style="stroke:none;fill:black;font-family:sans-serif;font-size:13;text-anchor:middle;" transform="matrix(1 0 0 1 2636.69 322)">Heavy</text>
  <text style="stroke:none;fill:black;font-family:sans-serif;font-size:13;text-anchor:middle;" transform="matrix(1 0 0 1 2933.4 322)">Black</text>
  <line style="fill:none;stroke:black;opacity:1;stroke-width:0.5;" x1="263" x2="3036" y1="1903" y2="1903"/>
  <g transform="matrix(1 0 0 1 263 1933)">
   <path d="M9.24805 0.830078Q10.8691 0.830078 12.2949 0.214844Q13.7207-0.400391 14.8096-1.49414Q15.8984-2.58789 16.5186-4.01367Q17.1387-5.43945 17.1387-7.05078Q17.1387-8.66211 16.5186-10.0879Q15.8984-11.5137 14.8047-12.6074Q13.7109-13.7012 12.2852-14.3164Q10.8594-14.9316 9.23828-14.9316Q7.62695-14.9316 6.20117-14.3164Q4.77539-13.7012 3.69141-12.6074Q2.60742-11.5137 1.9873-10.0879Q1.36719-8.66211 1.36719-7.05078Q1.36719-5.43945 1.9873-4.01367Q2.60742-2.58789 3.69629-1.49414Q4.78516-0.400391 6.21094 0.214844Q7.63672 0.830078 9.24805 0.830078ZM9.24805-0.654297Q7.91992-0.654297 6.7627-1.14746Q5.60547-1.64062 4.73145-2.51953Q3.85742-3.39844 3.36426-4.56055Q2.87109-5.72266 2.87109-7.05078Q2.87109-8.37891 3.35938-9.54102Q3.84766-10.7031 4.72168-11.582Q5.5957-12.4609 6.75293-12.9541Q7.91016-13.4473 9.23828-13.4473Q10.5762-13.4473 11.7334-12.9541Q12.8906-12.4609 13.7695-11.582Q14.6484-10.7031 15.1465-9.54102Q15.6445-8.37891 15.6445-7.05078Q15.6445-5.72266 15.1514-4.56055Q14.6582-3.39844 13.7842-2.51953Q12.9102-1.64062 11.748-1.14746Q10.5859-0.654297 9.24805-0.654297ZM5.6543-7.05078Q5.6543-6.72852 5.85938-6.52832Q6.06445-6.32812 6.40625-6.32812L8.51562-6.32812L8.51562-4.20898Q8.51562-3.88672 8.71094-3.67676Q8.90625-3.4668 9.23828-3.4668Q9.56055-3.4668 9.77051-3.67676Q9.98047-3.88672 9.98047-4.20898L9.98047-6.32812L12.0898-6.32812Q12.4219-6.32812 12.627-6.52832Q12.832-6.72852 12.832-7.05078Q12.832-7.38281 12.627-7.58789Q12.4219-7.79297 12.0898-7.79297L9.98047-7.79297L9.98047-9.90234Q9.98047-10.2344 9.77051-10.4443Q9.56055-10.6543 9.23828-10.6543Q8.90625-10.6543 8.71094-10.4443Q8.51562-10.2344 8.51562-9.90234L8.51562-7.79297L6.40625-7.79297Q6.06445-7.79297 5.85938-7.58789Q5.6543-7.38281 5.6543-7.05078Z"/>
  </g>
  <g transform="matrix(1 0 0 1 281.867 1933)">
   <path d="M11.709 2.91016Q13.75 2.91016 15.5518 2.12891Q17.3535 1.34766 18.7305-0.0292969Q20.1074-1.40625 20.8887-3.20801Q21.6699-5.00977 21.6699-7.05078Q21.6699-9.0918 20.8887-10.8936Q20.1074-12.6953 18.7305-14.0723Q17.3535-15.4492 15.5469-16.2305Q13.7402-17.0117 11.6992-17.0117Q9.6582-17.0117 7.85645-16.2305Q6.05469-15.4492 4.68262-14.0723Q3.31055-12.6953 2.5293-10.8936Q1.74805-9.0918 1.74805-7.05078Q1.74805-5.00977 2.5293-3.20801Q3.31055-1.40625 4.6875-0.0292969Q6.06445 1.34766 7.86621 2.12891Q9.66797 2.91016 11.709 2.91016ZM11.709 1.25Q9.98047 1.25 8.47656 0.605469Q6.97266-0.0390625 5.83496-1.17676Q4.69727-2.31445 4.05762-3.81836Q3.41797-5.32227 3.41797-7.05078Q3.41797-8.7793 4.05762-10.2832Q4.69727-11.7871 5.83008-12.9297Q6.96289-14.0723 8.4668-14.7119Q9.9707-15.3516 11.6992-15.3516Q13.4277-15.3516 14.9316-14.7119Q16.4355-14.0723 17.5781-12.9297Q18.7207-11.7871 19.3652-10.2832Q20.0098-8.7793 20.0098-7.05078Q20.0098-5.32227 19.3701-3.81836Q18.7305-2.31445 17.5928-1.17676Q16.4551-0.0390625 14.9463 0.605469Q13.4375 1.25 11.709 1.25ZM7.17773-7.05078Q7.17773-6.69922 7.41211-6.47461Q7.64648-6.25 8.01758-6.25L10.8887-6.25L10.8887-3.36914Q10.8887-2.99805 11.1133-2.76855Q11.3379-2.53906 11.6895-2.53906Q12.0605-2.53906 12.29-2.76855Q12.5195-2.99805 12.5195-3.36914L12.5195-6.25L15.4004-6.25Q15.7715-6.25 16.001-6.47461Q16.2305-6.69922 16.2305-7.05078Q16.2305-7.42188 16.001-7.65137Q15.7715-7.88086 15.4004-7.88086L12.5195-7.88086L12.5195-10.752Q12.5195-11.1328 12.29-11.3623Q12.0605-11.5918 11.6895-11.5918Q11.3379-11.5918 11.1133-11.3574Q10.8887-11.123 10.8887-10.752L10.8887-7.88086L8.01758-7.88086Q7.63672-7.88086 7.40723-7.65137Q7.17773-7.42188 7.17773-7.05078Z"/>
  </g>
  <g transform="matrix(1 0 0 1 305.646 1933)">
   <path d="M14.9707 5.66406Q17.0605 5.66406 18.96 5.01465Q20.8594 4.36523 22.4512 3.19336Q24.043 2.02148 25.2197 0.429688Q26.3965-1.16211 27.0459-3.06641Q27.6953-4.9707 27.6953-7.05078Q27.6953-9.14062 27.0459-11.04Q26.3965-12.9395 25.2197-14.5312Q24.043-16.123 22.4512-17.2998Q20.8594-18.4766 18.9551-19.126Q17.0508-19.7754 14.9609-19.7754Q12.8711-19.7754 10.9717-19.126Q9.07227-18.4766 7.48535-17.2998Q5.89844-16.123 4.72168-14.5312Q3.54492-12.9395 2.90039-11.04Q2.25586-9.14062 2.25586-7.05078Q2.25586-4.9707 2.90527-3.06641Q3.55469-1.16211 4.72656 0.429688Q5.89844 2.02148 7.49023 3.19336Q9.08203 4.36523 10.9814 5.01465Q12.8809 5.66406 14.9707 5.66406ZM14.9707 3.84766Q13.1641 3.84766 11.5283 3.2959Q9.89258 2.74414 8.53516 1.74805Q7.17773 0.751953 6.17676-0.610352Q5.17578-1.97266 4.62891-3.6084Q4.08203-5.24414 4.08203-7.05078Q4.08203-8.86719 4.62891-10.5029Q5.17578-12.1387 6.17188-13.501Q7.16797-14.8633 8.52539-15.8594Q9.88281-16.8555 11.5186-17.4023Q13.1543-17.9492 14.9609-17.9492Q16.7773-17.9492 18.4131-17.4023Q20.0488-16.8555 21.4111-15.8594Q22.7734-14.8633 23.7695-13.501Q24.7656-12.1387 25.3174-10.5029Q25.8691-8.86719 25.8691-7.05078Q25.8789-5.24414 25.332-3.6084Q24.7852-1.97266 23.7842-0.610352Q22.7832 0.751953 21.4209 1.74805Q20.0586 2.74414 18.4229 3.2959Q16.7871 3.84766 14.9707 3.84766ZM9.19922-7.05078Q9.19922-6.66992 9.45801-6.4209Q9.7168-6.17188 10.1172-6.17188L14.0625-6.17188L14.0625-2.2168Q14.0625-1.81641 14.3115-1.55762Q14.5605-1.29883 14.9512-1.29883Q15.3516-1.29883 15.6104-1.55273Q15.8691-1.80664 15.8691-2.2168L15.8691-6.17188L19.8242-6.17188Q20.2246-6.17188 20.4785-6.4209Q20.7324-6.66992 20.7324-7.05078Q20.7324-7.46094 20.4785-7.71484Q20.2246-7.96875 19.8242-7.96875L15.8691-7.96875L15.8691-11.9141Q15.8691-12.3242 15.6104-12.583Q15.3516-12.8418 14.9512-12.8418Q14.5605-12.8418 14.3115-12.583Q14.0625-12.3242 14.0625-11.9141L14.0625-7.96875L10.1172-7.96875Q9.70703-7.96875 9.45312-7.71484Q9.19922-7.46094 9.19922-7.05078Z"/>
  </g>
  <text style="stroke:none;fill:black;font-family:sans-serif;font-size:13;font-weight:bold;" transform="matrix(1 0 0 1 263 1953)">Design Variations</text>
  <text style="stroke:none;fill:black;font-family:sans-serif;font-size:13;" transform="matrix(1 0 0 1 263 1971)">Symbols are supported in up to nine weights and three scales.</text>
  <text style="stroke:none;fill:black;font-family:sans-serif;font-size:13;" transform="matrix(1 0 0 1 263 1989)">For optimal layout with text and other symbols, vertically align</text>
  <text style="stroke:none;fill:black;font-family:sans-serif;font-size:13;" transform="matrix(1 0 0 1 263 2007)">symbols with the adjacent text.</text>
  <line style="fill:none;stroke:#00AEEF;stroke-width:0.5;opacity:1.0;" x1="776" x2="776" y1="1919" y2="1933"/>
  <g transform="matrix(1 0 0 1 776 1933)">
   <path d="M3.31055 0.15625Q3.70117 0.15625 3.91602-0.00976562Q4.13086-0.175781 4.26758-0.585938L5.52734-4.0332L11.2891-4.0332L12.5488-0.585938Q12.6855-0.175781 12.9004-0.00976562Q13.1152 0.15625 13.4961 0.15625Q13.8867 0.15625 14.1162-0.0585938Q14.3457-0.273438 14.3457-0.644531Q14.3457-0.869141 14.2383-1.17188L9.6582-13.3691Q9.48242-13.8184 9.17969-14.043Q8.87695-14.2676 8.4082-14.2676Q7.5-14.2676 7.17773-13.3789L2.59766-1.16211Q2.49023-0.859375 2.49023-0.634766Q2.49023-0.263672 2.70996-0.0537109Q2.92969 0.15625 3.31055 0.15625ZM6.00586-5.51758L8.37891-12.0898L8.42773-12.0898L10.8008-5.51758Z"/>
  </g>
  <line style="fill:none;stroke:#00AEEF;stroke-width:0.5;opacity:1.0;" x1="793.197" x2="793.197" y1="1919" y2="1933"/>
  <text style="stroke:none;fill:black;font-family:sans-serif;font-size:13;font-weight:bold;" transform="matrix(1 0 0 1 776 1953)">Margins</text>
  <text style="stroke:none;fill:black;font-family:sans-serif;font-size:13;" transform="matrix(1 0 0 1 776 1971)">Leading and trailing margins on the left and right side of each symbol</text>
  <text style="stroke:none;fill:black;font-family:sans-serif;font-size:13;" transform="matrix(1 0 0 1 776 1989)">can be adjusted by modifying the x-location of the margin guidelines.</text>
  <text style="stroke:none;fill:black;font-family:sans-serif;font-size:13;" transform="matrix(1 0 0 1 776 2007)">Modifications are automatically applied proportionally to all</text>
  <text style="stroke:none;fill:black;font-family:sans-serif;font-size:13;" transform="matrix(1 0 0 1 776 2025)">scales and weights.</text>
  <g transform="matrix(1 0 0 1 1289 1933)">
   <path d="M2.8418 1.86523L4.54102 3.57422Q5.18555 4.22852 5.90332 4.17969Q6.62109 4.13086 7.31445 3.35938L18.0078-8.42773L17.041-9.4043L6.42578 2.27539Q6.16211 2.57812 5.89355 2.61719Q5.625 2.65625 5.27344 2.30469L4.10156 1.14258Q3.75 0.791016 3.79395 0.522461Q3.83789 0.253906 4.14062-0.0195312L15.6152-10.8203L14.6387-11.7871L3.04688-0.898438Q2.30469-0.214844 2.25098 0.498047Q2.19727 1.21094 2.8418 1.86523ZM9.25781-16.3281Q8.94531-16.0254 8.90625-15.6348Q8.86719-15.2441 9.04297-14.9512Q9.21875-14.6777 9.55566-14.541Q9.89258-14.4043 10.3809-14.5215Q11.4746-14.7754 12.5977-14.7314Q13.7207-14.6875 14.7949-13.9844L14.209-12.5293Q13.9551-11.9043 14.0674-11.4404Q14.1797-10.9766 14.5801-10.5664L16.875-8.25195Q17.2363-7.88086 17.5781-7.82227Q17.9199-7.76367 18.3398-7.8418L19.4043-8.03711L20.0684-7.36328L20.0293-6.80664Q20-6.43555 20.1221-6.12305Q20.2441-5.81055 20.6055-5.44922L21.3672-4.70703Q21.7285-4.3457 22.1533-4.33105Q22.5781-4.31641 22.9297-4.66797L25.8398-7.58789Q26.1914-7.93945 26.1816-8.35449Q26.1719-8.76953 25.8105-9.13086L25.0391-9.89258Q24.6875-10.2539 24.3799-10.3857Q24.0723-10.5176 23.7109-10.4883L23.1348-10.4395L22.4902-11.0742L22.7344-12.1973Q22.832-12.6172 22.6953-12.9834Q22.5586-13.3496 22.1191-13.7891L19.9219-15.9766Q18.6719-17.2168 17.2607-17.8369Q15.8496-18.457 14.4189-18.4814Q12.9883-18.5059 11.665-17.959Q10.3418-17.4121 9.25781-16.3281ZM10.752-15.957Q11.6602-16.6211 12.7002-16.9043Q13.7402-17.1875 14.8047-17.085Q15.8691-16.9824 16.8701-16.5137Q17.8711-16.0449 18.7012-15.2051L21.1328-12.793Q21.3086-12.6172 21.3525-12.4512Q21.3965-12.2852 21.3379-12.0312L21.0156-10.5469L22.5195-9.0625L23.5059-9.12109Q23.6914-9.13086 23.7891-9.09668Q23.8867-9.0625 24.0332-8.91602L24.6094-8.33984L22.168-5.89844L21.5918-6.47461Q21.4453-6.62109 21.4062-6.71875Q21.3672-6.81641 21.377-7.01172L21.4453-7.98828L19.9512-9.47266L18.4277-9.21875Q18.1836-9.16992 18.042-9.2041Q17.9004-9.23828 17.7148-9.41406L15.7129-11.416Q15.5176-11.5918 15.4932-11.7529Q15.4688-11.9141 15.5859-12.1875L16.4648-14.2773Q15.293-15.3711 13.8281-15.791Q12.3633-16.2109 10.8398-15.7617Q10.7227-15.7324 10.6885-15.8057Q10.6543-15.8789 10.752-15.957Z"/>
  </g>
  <text style="stroke:none;fill:black;font-family:sans-serif;font-size:13;font-weight:bold;" transform="matrix(1 0 0 1 1289 1953)">Exporting</text>
  <text style="stroke:none;fill:black;font-family:sans-serif;font-size:13;" transform="matrix(1 0 0 1 1289 1971)">Symbols should be outlined when exporting to ensure the</text>
  <text style="stroke:none;fill:black;font-family:sans-serif;font-size:13;" transform="matrix(1 0 0 1 1289 1989)">design is preserved when submitting to Xcode.</text>
  <text id="template-version" style="stroke:none;fill:black;font-family:sans-serif;font-size:13;text-anchor:end;" transform="matrix(1 0 0 1 3036 1933)">Template v.3.0</text>
  <text style="stroke:none;fill:black;font-family:sans-serif;font-size:13;text-anchor:end;" transform="matrix(1 0 0 1 3036 1951)">Requires Xcode 13 or greater</text>
  <text id="descriptive-name" style="stroke:none;fill:black;font-family:sans-serif;font-size:13;text-anchor:end;" transform="matrix(1 0 0 1 3036 1969)">Symbol moniker: Faktor</text>
  <text style="stroke:none;fill:black;font-family:sans-serif;font-size:13;text-anchor:end;" transform="matrix(1 0 0 1 3036 1987)">Typeset at 100 points</text>
  <text style="stroke:none;fill:black;font-family:sans-serif;font-size:13;" transform="matrix(1 0 0 1 263 726)">Small</text>
  <text style="stroke:none;fill:black;font-family:sans-serif;font-size:13;" transform="matrix(1 0 0 1 263 1156)">Medium</text>
  <text style="stroke:none;fill:black;font-family:sans-serif;font-size:13;" transform="matrix(1 0 0 1 263 1586)">Large</text>
 </g>
 <g id="Guides">
  <g id="H-reference" style="fill:#27AAE1;stroke:none;" transform="matrix(1 0 0 1 339 696)">
   <path d="M0.976562 0L3.66211 0L29.3457-67.1387L30.0293-67.1387L30.0293-70.459L28.125-70.459ZM11.6699-24.4629L46.9727-24.4629L46.2402-26.709L12.4512-26.709ZM55.127 0L57.7637 0L30.6152-70.459L29.4434-70.459L29.4434-67.1387Z"/>
  </g>
  <line id="Baseline-S" style="fill:none;stroke:#27AAE1;opacity:1;stroke-width:0.5;" x1="263" x2="3036" y1="696" y2="696"/>
  <line id="Capline-S" style="fill:none;stroke:#27AAE1;opacity:1;stroke-width:0.5;" x1="263" x2="3036" y1="625.541" y2="625.541"/>
  <g id="H-reference" style="fill:#27AAE1;stroke:none;" transform="matrix(1 0 0 1 339 1126)">
   <path d="M0.976562 0L3.66211 0L29.3457-67.1387L30.0293-67.1387L30.0293-70.459L28.125-70.459ZM11.6699-24.4629L46.9727-24.4629L46.2402-26.709L12.4512-26.709ZM55.127 0L57.7637 0L30.6152-70.459L29.4434-70.459L29.4434-67.1387Z"/>
  </g>
  <line id="Baseline-M" style="fill:none;stroke:#27AAE1;opacity:1;stroke-width:0.5;" x1="263" x2="3036" y1="1126" y2="1126"/>
  <line id="Capline-M" style="fill:none;stroke:#27AAE1;opacity:1;stroke-width:0.5;" x1="263" x2="3036" y1="1055.54" y2="1055.54"/>
  <g id="H-reference" style="fill:#27AAE1;stroke:none;" transform="matrix(1 0 0 1 339 1556)">
   <path d="M0.976562 0L3.66211 0L29.3457-67.1387L30.0293-67.1387L30.0293-70.459L28.125-70.459ZM11.6699-24.4629L46.9727-24.4629L46.2402-26.709L12.4512-26.709ZM55.127 0L57.7637 0L30.6152-70.459L29.4434-70.459L29.4434-67.1387Z"/>
  </g>
  <line id="Baseline-L" style="fill:none;stroke:#27AAE1;opacity:1;stroke-width:0.5;" x1="263" x2="3036" y1="1556" y2="1556"/>
  <line id="Capline-L" style="fill:none;stroke:#27AAE1;opacity:1;stroke-width:0.5;" x1="263" x2="3036" y1="1485.54" y2="1485.54"/>
  <line id="left-margin-Ultralight-S" style="fill:none;stroke:#00AEEF;stroke-width:0.5;opacity:1.0;" x1="515.351" x2="515.351" y1="600.784" y2="720.121"/>
  <line id="right-margin-Ultralight-S" style="fill:none;stroke:#00AEEF;stroke-width:0.5;opacity:1.0;" x1="604.071" x2="604.071" y1="600.784" y2="720.121"/>
  <line id="left-margin-Regular-S" style="fill:none;stroke:#00AEEF;stroke-width:0.5;opacity:1.0;" x1="1401.75" x2="1401.75" y1="600.784" y2="720.121"/>
  <line id="right-margin-Regular-S" style="fill:none;stroke:#00AEEF;stroke-width:0.5;opacity:1.0;" x1="1497.94" x2="1497.94" y1="600.784" y2="720.121"/>
  <line id="left-margin-Black-S" style="fill:none;stroke:#00AEEF;stroke-width:0.5;opacity:1.0;" x1="2883.2" x2="2883.2" y1="600.784" y2="720.121"/>
  <line id="right-margin-Black-S" style="fill:none;stroke:#00AEEF;stroke-width:0.5;opacity:1.0;" x1="2983.6" x2="2983.6" y1="600.784" y2="720.121"/>
 </g>
 <g id="Symbols">
  <g id="Black-L" transform="matrix(1,0,0,1,2853.3999999999996,1440.77)">

  <path d="M35.23114355231144 121.48541114058357V148.63533156498673L72.74939172749392 121.48541114058357H140C143.03299270072992 121.48541114058357 145.94141119221413 120.17188328912466 148.08603406326034 117.83384615384617 150.23065693430658 115.49580901856764 151.43552311435525 112.32509283819628 151.43552311435525 109.0185676392573V21.80371352785146C151.43552311435525 18.497315649867375 150.23065693430658 15.326302387267905 148.08603406326034 12.988307692307693 145.94141119221413 10.650355437665782 143.03299270072992 9.3368700265252 140 9.3368700265252H20C16.96712408759124 9.3368700265252 14.058433090024332 10.650355437665782 11.913849148418493 12.988307692307693 9.76930413625304 15.326302387267905 8.564476885644769 18.497315649867375 8.564476885644769 21.80371352785146V109.0185676392573C8.564476885644769 112.32509283819628 9.76930413625304 115.49580901856764 11.913849148418493 117.83384615384617 14.058433090024332 120.17188328912466 16.96712408759124 121.48541114058357 20 121.48541114058357H35.23114355231144ZM26.666666666666668 152.6259946949602V130.82228116710877H20C14.69566909975669 130.82228116710877 9.608603406326035 128.52498673740052 5.857868613138686 124.43628647214854 2.107137712895377 120.34716180371353 0 114.80106100795757 0 109.0185676392573V21.80371352785146C0 16.021007957559682 2.107137712895377 10.475161803713528 5.857868613138686 6.386164456233422 9.608603406326035 2.297171352785146 14.69566909975669 0 20 0H140C145.30413625304138 0 150.39143552311435 2.297171352785146 154.14228710462288 6.386164456233422 157.8927493917275 10.475161803713528 160 16.021007957559682 160 21.80371352785146V109.0185676392573C160 114.80106100795757 157.8927493917275 120.34716180371353 154.14228710462288 124.43628647214854 150.39143552311435 128.52498673740052 145.30413625304138 130.82228116710877 140 130.82228116710877H75.33313868613139L36.86664720194648 158.65846153846155C35.88278345498784 159.35236074270557 34.748457420924574 159.75129973474802 33.578043795620445 159.8149602122016 32.4076301703163 159.8790450928382 31.24247201946472 159.6053050397878 30.199980535279806 159.02175066312998 29.135454987834553 158.4038196286472 28.244632603406327 157.4824403183024 27.622423357664236 156.35649867374008 27.000214111922144 155.2301326259947 26.66989781021898 153.9407957559682 26.666666666666668 152.6259946949602Z" class="hierarchical-1:primary "/><path d="M93.33333333333334 65.41114058355438H66.66666666666667C64.89849148418492 65.41114058355438 63.202725060827255 64.64551724137931 61.95270072992701 63.28233421750664 60.702287104622876 61.919575596816976 60.00000000000001 60.07087533156499 60.00000000000001 58.14323607427056V43.60742705570292C60.00000000000001 37.82472148541114 62.107250608272516 32.27887533156499 65.85771289537713 28.18987798408488 69.60856447688565 24.100880636604774 74.69586374695864 21.80371352785146 80 21.80371352785146 85.30413625304136 21.80371352785146 90.39143552311437 24.100880636604774 94.14228710462288 28.18987798408488 97.89274939172749 32.27887533156499 100 37.82472148541114 100 43.60742705570292V58.14323607427056C100 60.07087533156499 99.29771289537713 61.919575596816976 98.047299270073 63.28233421750664 96.79727493917275 64.64551724137931 95.1015085158151 65.41114058355438 93.33333333333334 65.41114058355438ZM73.33333333333334 50.87533156498674H86.66666666666667V43.60742705570292C86.66666666666667 41.6798726790451 85.9643795620438 39.83125729442971 84.71396593673967 38.46824403183024 83.46394160583942 37.10523076923077 81.76817518248176 36.3395225464191 80 36.3395225464191 78.23182481751826 36.3395225464191 76.53605839416059 37.10523076923077 75.28603406326035 38.46824403183024 74.03562043795621 39.83125729442971 73.33333333333334 41.6798726790451 73.33333333333334 43.60742705570292V50.87533156498674Z" class="hierarchical-1:primary "/><path d="M66.66666666666667 50.87533156498674H93.33333333333334C100.69722627737227 50.87533156498674 106.66666666666667 57.38312997347481 106.66666666666667 65.41114058355438V94.48275862068967C106.66666666666667 102.51076923076923 100.69722627737227 109.0185676392573 93.33333333333334 109.0185676392573H66.66666666666667C59.30277372262774 109.0185676392573 53.333333333333336 102.51076923076923 53.333333333333336 94.48275862068967V65.41114058355438C53.333333333333336 57.38312997347481 59.30277372262774 50.87533156498674 66.66666666666667 50.87533156498674ZM75.28603406326035 85.0860477453581C76.53605839416059 86.44923076923077 78.23182481751826 87.21485411140584 80 87.21485411140584 81.76817518248176 87.21485411140584 83.46394160583942 86.44923076923077 84.71396593673967 85.0860477453581 85.9643795620438 83.72328912466844 86.66666666666667 81.87458885941645 86.66666666666667 79.94694960212202 86.66666666666667 78.01931034482759 85.9643795620438 76.1706100795756 84.71396593673967 74.80785145888593 83.46394160583942 73.44466843501327 81.76817518248176 72.6790450928382 80 72.6790450928382 78.23182481751826 72.6790450928382 76.53605839416059 73.44466843501327 75.28603406326035 74.80785145888593 74.03562043795621 76.1706100795756 73.33333333333334 78.01931034482759 73.33333333333334 79.94694960212202 73.33333333333334 81.87458885941645 74.03562043795621 83.72328912466844 75.28603406326035 85.0860477453581Z" class="hierarchical-1:primary "/></g>
  <g id="Regular-L" transform="matrix(1,0,0,1,1369.845,1440.77)">

  <path d="M35.23114355231144 121.48541114058357V148.63533156498673L72.74939172749392 121.48541114058357H140C143.03299270072992 121.48541114058357 145.94141119221413 120.17188328912466 148.08603406326034 117.83384615384617 150.23065693430658 115.49580901856764 151.43552311435525 112.32509283819628 151.43552311435525 109.0185676392573V21.80371352785146C151.43552311435525 18.497315649867375 150.23065693430658 15.326302387267905 148.08603406326034 12.988307692307693 145.94141119221413 10.650355437665782 143.03299270072992 9.3368700265252 140 9.3368700265252H20C16.96712408759124 9.3368700265252 14.058433090024332 10.650355437665782 11.913849148418493 12.988307692307693 9.76930413625304 15.326302387267905 8.564476885644769 18.497315649867375 8.564476885644769 21.80371352785146V109.0185676392573C8.564476885644769 112.32509283819628 9.76930413625304 115.49580901856764 11.913849148418493 117.83384615384617 14.058433090024332 120.17188328912466 16.96712408759124 121.48541114058357 20 121.48541114058357H35.23114355231144ZM26.666666666666668 152.6259946949602V130.82228116710877H20C14.69566909975669 130.82228116710877 9.608603406326035 128.52498673740052 5.857868613138686 124.43628647214854 2.107137712895377 120.34716180371353 0 114.80106100795757 0 109.0185676392573V21.80371352785146C0 16.021007957559682 2.107137712895377 10.475161803713528 5.857868613138686 6.386164456233422 9.608603406326035 2.297171352785146 14.69566909975669 0 20 0H140C145.30413625304138 0 150.39143552311435 2.297171352785146 154.14228710462288 6.386164456233422 157.8927493917275 10.475161803713528 160 16.021007957559682 160 21.80371352785146V109.0185676392573C160 114.80106100795757 157.8927493917275 120.34716180371353 154.14228710462288 124.43628647214854 150.39143552311435 128.52498673740052 145.30413625304138 130.82228116710877 140 130.82228116710877H75.33313868613139L36.86664720194648 158.65846153846155C35.88278345498784 159.35236074270557 34.748457420924574 159.75129973474802 33.578043795620445 159.8149602122016 32.4076301703163 159.8790450928382 31.24247201946472 159.6053050397878 30.199980535279806 159.02175066312998 29.135454987834553 158.4038196286472 28.244632603406327 157.4824403183024 27.622423357664236 156.35649867374008 27.000214111922144 155.2301326259947 26.66989781021898 153.9407957559682 26.666666666666668 152.6259946949602Z" class="hierarchical-1:primary "/><path d="M93.33333333333334 65.41114058355438H66.66666666666667C64.89849148418492 65.41114058355438 63.202725060827255 64.64551724137931 61.95270072992701 63.28233421750664 60.702287104622876 61.919575596816976 60.00000000000001 60.07087533156499 60.00000000000001 58.14323607427056V43.60742705570292C60.00000000000001 37.82472148541114 62.107250608272516 32.27887533156499 65.85771289537713 28.18987798408488 69.60856447688565 24.100880636604774 74.69586374695864 21.80371352785146 80 21.80371352785146 85.30413625304136 21.80371352785146 90.39143552311437 24.100880636604774 94.14228710462288 28.18987798408488 97.89274939172749 32.27887533156499 100 37.82472148541114 100 43.60742705570292V58.14323607427056C100 60.07087533156499 99.29771289537713 61.919575596816976 98.047299270073 63.28233421750664 96.79727493917275 64.64551724137931 95.1015085158151 65.41114058355438 93.33333333333334 65.41114058355438ZM73.33333333333334 50.87533156498674H86.66666666666667V43.60742705570292C86.66666666666667 41.6798726790451 85.9643795620438 39.83125729442971 84.71396593673967 38.46824403183024 83.46394160583942 37.10523076923077 81.76817518248176 36.3395225464191 80 36.3395225464191 78.23182481751826 36.3395225464191 76.53605839416059 37.10523076923077 75.28603406326035 38.46824403183024 74.03562043795621 39.83125729442971 73.33333333333334 41.6798726790451 73.33333333333334 43.60742705570292V50.87533156498674Z" class="hierarchical-1:primary "/><path d="M66.66666666666667 50.87533156498674H93.33333333333334C100.69722627737227 50.87533156498674 106.66666666666667 57.38312997347481 106.66666666666667 65.41114058355438V94.48275862068967C106.66666666666667 102.51076923076923 100.69722627737227 109.0185676392573 93.33333333333334 109.0185676392573H66.66666666666667C59.30277372262774 109.0185676392573 53.333333333333336 102.51076923076923 53.333333333333336 94.48275862068967V65.41114058355438C53.333333333333336 57.38312997347481 59.30277372262774 50.87533156498674 66.66666666666667 50.87533156498674ZM75.28603406326035 85.0860477453581C76.53605839416059 86.44923076923077 78.23182481751826 87.21485411140584 80 87.21485411140584 81.76817518248176 87.21485411140584 83.46394160583942 86.44923076923077 84.71396593673967 85.0860477453581 85.9643795620438 83.72328912466844 86.66666666666667 81.87458885941645 86.66666666666667 79.94694960212202 86.66666666666667 78.01931034482759 85.9643795620438 76.1706100795756 84.71396593673967 74.80785145888593 83.46394160583942 73.44466843501327 81.76817518248176 72.6790450928382 80 72.6790450928382 78.23182481751826 72.6790450928382 76.53605839416059 73.44466843501327 75.28603406326035 74.80785145888593 74.03562043795621 76.1706100795756 73.33333333333334 78.01931034482759 73.33333333333334 79.94694960212202 73.33333333333334 81.87458885941645 74.03562043795621 83.72328912466844 75.28603406326035 85.0860477453581Z" class="hierarchical-1:primary "/></g>
  <g id="Ultralight-L" transform="matrix(1,0,0,1,479.711,1440.77)">

  <path d="M35.23114355231144 121.48541114058357V148.63533156498673L72.74939172749392 121.48541114058357H140C143.03299270072992 121.48541114058357 145.94141119221413 120.17188328912466 148.08603406326034 117.83384615384617 150.23065693430658 115.49580901856764 151.43552311435525 112.32509283819628 151.43552311435525 109.0185676392573V21.80371352785146C151.43552311435525 18.497315649867375 150.23065693430658 15.326302387267905 148.08603406326034 12.988307692307693 145.94141119221413 10.650355437665782 143.03299270072992 9.3368700265252 140 9.3368700265252H20C16.96712408759124 9.3368700265252 14.058433090024332 10.650355437665782 11.913849148418493 12.988307692307693 9.76930413625304 15.326302387267905 8.564476885644769 18.497315649867375 8.564476885644769 21.80371352785146V109.0185676392573C8.564476885644769 112.32509283819628 9.76930413625304 115.49580901856764 11.913849148418493 117.83384615384617 14.058433090024332 120.17188328912466 16.96712408759124 121.48541114058357 20 121.48541114058357H35.23114355231144ZM26.666666666666668 152.6259946949602V130.82228116710877H20C14.69566909975669 130.82228116710877 9.608603406326035 128.52498673740052 5.857868613138686 124.43628647214854 2.107137712895377 120.34716180371353 0 114.80106100795757 0 109.0185676392573V21.80371352785146C0 16.021007957559682 2.107137712895377 10.475161803713528 5.857868613138686 6.386164456233422 9.608603406326035 2.297171352785146 14.69566909975669 0 20 0H140C145.30413625304138 0 150.39143552311435 2.297171352785146 154.14228710462288 6.386164456233422 157.8927493917275 10.475161803713528 160 16.021007957559682 160 21.80371352785146V109.0185676392573C160 114.80106100795757 157.8927493917275 120.34716180371353 154.14228710462288 124.43628647214854 150.39143552311435 128.52498673740052 145.30413625304138 130.82228116710877 140 130.82228116710877H75.33313868613139L36.86664720194648 158.65846153846155C35.88278345498784 159.35236074270557 34.748457420924574 159.75129973474802 33.578043795620445 159.8149602122016 32.4076301703163 159.8790450928382 31.24247201946472 159.6053050397878 30.199980535279806 159.02175066312998 29.135454987834553 158.4038196286472 28.244632603406327 157.4824403183024 27.622423357664236 156.35649867374008 27.000214111922144 155.2301326259947 26.66989781021898 153.9407957559682 26.666666666666668 152.6259946949602Z" class="hierarchical-1:primary "/><path d="M93.33333333333334 65.41114058355438H66.66666666666667C64.89849148418492 65.41114058355438 63.202725060827255 64.64551724137931 61.95270072992701 63.28233421750664 60.702287104622876 61.919575596816976 60.00000000000001 60.07087533156499 60.00000000000001 58.14323607427056V43.60742705570292C60.00000000000001 37.82472148541114 62.107250608272516 32.27887533156499 65.85771289537713 28.18987798408488 69.60856447688565 24.100880636604774 74.69586374695864 21.80371352785146 80 21.80371352785146 85.30413625304136 21.80371352785146 90.39143552311437 24.100880636604774 94.14228710462288 28.18987798408488 97.89274939172749 32.27887533156499 100 37.82472148541114 100 43.60742705570292V58.14323607427056C100 60.07087533156499 99.29771289537713 61.919575596816976 98.047299270073 63.28233421750664 96.79727493917275 64.64551724137931 95.1015085158151 65.41114058355438 93.33333333333334 65.41114058355438ZM73.33333333333334 50.87533156498674H86.66666666666667V43.60742705570292C86.66666666666667 41.6798726790451 85.9643795620438 39.83125729442971 84.71396593673967 38.46824403183024 83.46394160583942 37.10523076923077 81.76817518248176 36.3395225464191 80 36.3395225464191 78.23182481751826 36.3395225464191 76.53605839416059 37.10523076923077 75.28603406326035 38.46824403183024 74.03562043795621 39.83125729442971 73.33333333333334 41.6798726790451 73.33333333333334 43.60742705570292V50.87533156498674Z" class="hierarchical-1:primary "/><path d="M66.66666666666667 50.87533156498674H93.33333333333334C100.69722627737227 50.87533156498674 106.66666666666667 57.38312997347481 106.66666666666667 65.41114058355438V94.48275862068967C106.66666666666667 102.51076923076923 100.69722627737227 109.0185676392573 93.33333333333334 109.0185676392573H66.66666666666667C59.30277372262774 109.0185676392573 53.333333333333336 102.51076923076923 53.333333333333336 94.48275862068967V65.41114058355438C53.333333333333336 57.38312997347481 59.30277372262774 50.87533156498674 66.66666666666667 50.87533156498674ZM75.28603406326035 85.0860477453581C76.53605839416059 86.44923076923077 78.23182481751826 87.21485411140584 80 87.21485411140584 81.76817518248176 87.21485411140584 83.46394160583942 86.44923076923077 84.71396593673967 85.0860477453581 85.9643795620438 83.72328912466844 86.66666666666667 81.87458885941645 86.66666666666667 79.94694960212202 86.66666666666667 78.01931034482759 85.9643795620438 76.1706100795756 84.71396593673967 74.80785145888593 83.46394160583942 73.44466843501327 81.76817518248176 72.6790450928382 80 72.6790450928382 78.23182481751826 72.6790450928382 76.53605839416059 73.44466843501327 75.28603406326035 74.80785145888593 74.03562043795621 76.1706100795756 73.33333333333334 78.01931034482759 73.33333333333334 79.94694960212202 73.33333333333334 81.87458885941645 74.03562043795621 83.72328912466844 75.28603406326035 85.0860477453581Z" class="hierarchical-1:primary "/></g>
  <g id="Black-M" transform="matrix(1,0,0,1,2869.3999999999996,1026.77)">

  <path d="M28.18491484184915 97.18832891246684V118.90826525198938L58.19951338199513 97.18832891246684H112C114.42639416058394 97.18832891246684 116.7531289537713 96.13750663129971 118.46882725060829 94.26707692307693 120.18452554744525 92.39664721485411 121.1484184914842 89.86007427055702 121.1484184914842 87.21485411140583V17.442970822281165C121.1484184914842 14.797852519893897 120.18452554744525 12.261041909814324 118.46882725060829 10.390646153846154 116.7531289537713 8.520284350132625 114.42639416058394 7.469496021220158 112 7.469496021220158H16C13.573699270072993 7.469496021220158 11.246746472019465 8.520284350132625 9.531079318734793 10.390646153846154 7.815443309002433 12.261041909814324 6.851581508515816 14.797852519893897 6.851581508515816 17.442970822281165V87.21485411140583C6.851581508515816 89.86007427055702 7.815443309002433 92.39664721485411 9.531079318734793 94.26707692307693 11.246746472019465 96.13750663129971 13.573699270072993 97.18832891246684 16 97.18832891246684H28.18491484184915ZM21.333333333333332 122.10079575596816V104.657824933687H16C11.756535279805352 104.657824933687 7.686882725060827 102.81998938992041 4.686294890510949 99.54902917771882 1.6857101703163015 96.27772944297081 0 91.84084880636604 0 87.21485411140583V17.442970822281165C0 12.816806366047745 1.6857101703163015 8.380129442970821 4.686294890510949 5.108931564986737 7.686882725060827 1.8377370822281165 11.756535279805352 0 16 0H112C116.2433090024331 0 120.31314841849148 1.8377370822281165 123.31382968369829 5.108931564986737 126.314199513382 8.380129442970821 128 12.816806366047745 128 17.442970822281165V87.21485411140583C128 91.84084880636604 126.314199513382 96.27772944297081 123.31382968369829 99.54902917771882 120.31314841849148 102.81998938992041 116.2433090024331 104.657824933687 112 104.657824933687H60.266510948905115L29.49331776155718 126.92676923076922C28.70622676399027 127.48188859416445 27.79876593673966 127.8010397877984 26.862435036496354 127.85196816976128 25.92610413625304 127.90323607427054 24.993977615571776 127.68424403183023 24.159984428223844 127.21740053050397 23.30836399026764 126.72305570291776 22.59570608272506 125.9859522546419 22.09793868613139 125.08519893899204 21.600171289537716 124.18410610079576 21.335918248175183 123.15263660477453 21.333333333333332 122.10079575596816Z" class="hierarchical-1:primary "/><path d="M74.66666666666667 52.3289124668435H53.333333333333336C51.91879318734793 52.3289124668435 50.5621800486618 51.71641379310344 49.562160583941605 50.6258673740053 48.5618296836983 49.535660477453575 48 48.05670026525199 48 46.51458885941644V34.88594164456233C48 30.25977718832891 49.68580048661801 25.82310026525199 52.686170316301705 22.5519023872679 55.68685158150851 19.28070450928382 59.75669099756691 17.442970822281165 64 17.442970822281165 68.2433090024331 17.442970822281165 72.3131484184915 19.28070450928382 75.3138296836983 22.5519023872679 78.314199513382 25.82310026525199 80 30.25977718832891 80 34.88594164456233V46.51458885941644C80 48.05670026525199 79.43817031630171 49.535660477453575 78.4378394160584 50.6258673740053 77.4378199513382 51.71641379310344 76.08120681265207 52.3289124668435 74.66666666666667 52.3289124668435ZM58.66666666666667 40.700265251989386H69.33333333333333V34.88594164456233C69.33333333333333 33.343898143236075 68.77150364963504 31.865005835543766 67.77117274939174 30.77459522546419 66.77115328467153 29.684184615384613 65.4145401459854 29.071618037135277 64 29.071618037135277 62.5854598540146 29.071618037135277 61.22884671532847 29.684184615384613 60.22882725060827 30.77459522546419 59.22849635036496 31.865005835543766 58.66666666666667 33.343898143236075 58.66666666666667 34.88594164456233V40.700265251989386Z" class="hierarchical-1:primary "/><path d="M53.333333333333336 40.700265251989386H74.66666666666667C80.55778102189781 40.700265251989386 85.33333333333333 45.90650397877984 85.33333333333333 52.3289124668435V75.58620689655172C85.33333333333333 82.00861538461538 80.55778102189781 87.21485411140583 74.66666666666667 87.21485411140583H53.333333333333336C47.44221897810219 87.21485411140583 42.666666666666664 82.00861538461538 42.666666666666664 75.58620689655172V52.3289124668435C42.666666666666664 45.90650397877984 47.44221897810219 40.700265251989386 53.333333333333336 40.700265251989386ZM60.22882725060827 68.06883819628648C61.22884671532847 69.15938461538461 62.5854598540146 69.77188328912466 64 69.77188328912466 65.4145401459854 69.77188328912466 66.77115328467153 69.15938461538461 67.77117274939174 68.06883819628648 68.77150364963504 66.97863129973474 69.33333333333333 65.49967108753316 69.33333333333333 63.95755968169761 69.33333333333333 62.41544827586206 68.77150364963504 60.93648806366048 67.77117274939174 59.84628116710875 66.77115328467153 58.75573474801061 65.4145401459854 58.143236074270554 64 58.143236074270554 62.5854598540146 58.143236074270554 61.22884671532847 58.75573474801061 60.22882725060827 59.84628116710875 59.22849635036496 60.93648806366048 58.66666666666667 62.41544827586206 58.66666666666667 63.95755968169761 58.66666666666667 65.49967108753316 59.22849635036496 66.97863129973474 60.22882725060827 68.06883819628648Z" class="hierarchical-1:primary "/></g>
  <g id="Regular-M" transform="matrix(1,0,0,1,1385.845,1026.77)">

  <path d="M28.18491484184915 97.18832891246684V118.90826525198938L58.19951338199513 97.18832891246684H112C114.42639416058394 97.18832891246684 116.7531289537713 96.13750663129971 118.46882725060829 94.26707692307693 120.18452554744525 92.39664721485411 121.1484184914842 89.86007427055702 121.1484184914842 87.21485411140583V17.442970822281165C121.1484184914842 14.797852519893897 120.18452554744525 12.261041909814324 118.46882725060829 10.390646153846154 116.7531289537713 8.520284350132625 114.42639416058394 7.469496021220158 112 7.469496021220158H16C13.573699270072993 7.469496021220158 11.246746472019465 8.520284350132625 9.531079318734793 10.390646153846154 7.815443309002433 12.261041909814324 6.851581508515816 14.797852519893897 6.851581508515816 17.442970822281165V87.21485411140583C6.851581508515816 89.86007427055702 7.815443309002433 92.39664721485411 9.531079318734793 94.26707692307693 11.246746472019465 96.13750663129971 13.573699270072993 97.18832891246684 16 97.18832891246684H28.18491484184915ZM21.333333333333332 122.10079575596816V104.657824933687H16C11.756535279805352 104.657824933687 7.686882725060827 102.81998938992041 4.686294890510949 99.54902917771882 1.6857101703163015 96.27772944297081 0 91.84084880636604 0 87.21485411140583V17.442970822281165C0 12.816806366047745 1.6857101703163015 8.380129442970821 4.686294890510949 5.108931564986737 7.686882725060827 1.8377370822281165 11.756535279805352 0 16 0H112C116.2433090024331 0 120.31314841849148 1.8377370822281165 123.31382968369829 5.108931564986737 126.314199513382 8.380129442970821 128 12.816806366047745 128 17.442970822281165V87.21485411140583C128 91.84084880636604 126.314199513382 96.27772944297081 123.31382968369829 99.54902917771882 120.31314841849148 102.81998938992041 116.2433090024331 104.657824933687 112 104.657824933687H60.266510948905115L29.49331776155718 126.92676923076922C28.70622676399027 127.48188859416445 27.79876593673966 127.8010397877984 26.862435036496354 127.85196816976128 25.92610413625304 127.90323607427054 24.993977615571776 127.68424403183023 24.159984428223844 127.21740053050397 23.30836399026764 126.72305570291776 22.59570608272506 125.9859522546419 22.09793868613139 125.08519893899204 21.600171289537716 124.18410610079576 21.335918248175183 123.15263660477453 21.333333333333332 122.10079575596816Z" class="hierarchical-1:primary "/><path d="M74.66666666666667 52.3289124668435H53.333333333333336C51.91879318734793 52.3289124668435 50.5621800486618 51.71641379310344 49.562160583941605 50.6258673740053 48.5618296836983 49.535660477453575 48 48.05670026525199 48 46.51458885941644V34.88594164456233C48 30.25977718832891 49.68580048661801 25.82310026525199 52.686170316301705 22.5519023872679 55.68685158150851 19.28070450928382 59.75669099756691 17.442970822281165 64 17.442970822281165 68.2433090024331 17.442970822281165 72.3131484184915 19.28070450928382 75.3138296836983 22.5519023872679 78.314199513382 25.82310026525199 80 30.25977718832891 80 34.88594164456233V46.51458885941644C80 48.05670026525199 79.43817031630171 49.535660477453575 78.4378394160584 50.6258673740053 77.4378199513382 51.71641379310344 76.08120681265207 52.3289124668435 74.66666666666667 52.3289124668435ZM58.66666666666667 40.700265251989386H69.33333333333333V34.88594164456233C69.33333333333333 33.343898143236075 68.77150364963504 31.865005835543766 67.77117274939174 30.77459522546419 66.77115328467153 29.684184615384613 65.4145401459854 29.071618037135277 64 29.071618037135277 62.5854598540146 29.071618037135277 61.22884671532847 29.684184615384613 60.22882725060827 30.77459522546419 59.22849635036496 31.865005835543766 58.66666666666667 33.343898143236075 58.66666666666667 34.88594164456233V40.700265251989386Z" class="hierarchical-1:primary "/><path d="M53.333333333333336 40.700265251989386H74.66666666666667C80.55778102189781 40.700265251989386 85.33333333333333 45.90650397877984 85.33333333333333 52.3289124668435V75.58620689655172C85.33333333333333 82.00861538461538 80.55778102189781 87.21485411140583 74.66666666666667 87.21485411140583H53.333333333333336C47.44221897810219 87.21485411140583 42.666666666666664 82.00861538461538 42.666666666666664 75.58620689655172V52.3289124668435C42.666666666666664 45.90650397877984 47.44221897810219 40.700265251989386 53.333333333333336 40.700265251989386ZM60.22882725060827 68.06883819628648C61.22884671532847 69.15938461538461 62.5854598540146 69.77188328912466 64 69.77188328912466 65.4145401459854 69.77188328912466 66.77115328467153 69.15938461538461 67.77117274939174 68.06883819628648 68.77150364963504 66.97863129973474 69.33333333333333 65.49967108753316 69.33333333333333 63.95755968169761 69.33333333333333 62.41544827586206 68.77150364963504 60.93648806366048 67.77117274939174 59.84628116710875 66.77115328467153 58.75573474801061 65.4145401459854 58.143236074270554 64 58.143236074270554 62.5854598540146 58.143236074270554 61.22884671532847 58.75573474801061 60.22882725060827 59.84628116710875 59.22849635036496 60.93648806366048 58.66666666666667 62.41544827586206 58.66666666666667 63.95755968169761 58.66666666666667 65.49967108753316 59.22849635036496 66.97863129973474 60.22882725060827 68.06883819628648Z" class="hierarchical-1:primary "/></g>
  <g id="Ultralight-M" transform="matrix(1,0,0,1,495.711,1026.77)">

  <path d="M28.18491484184915 97.18832891246684V118.90826525198938L58.19951338199513 97.18832891246684H112C114.42639416058394 97.18832891246684 116.7531289537713 96.13750663129971 118.46882725060829 94.26707692307693 120.18452554744525 92.39664721485411 121.1484184914842 89.86007427055702 121.1484184914842 87.21485411140583V17.442970822281165C121.1484184914842 14.797852519893897 120.18452554744525 12.261041909814324 118.46882725060829 10.390646153846154 116.7531289537713 8.520284350132625 114.42639416058394 7.469496021220158 112 7.469496021220158H16C13.573699270072993 7.469496021220158 11.246746472019465 8.520284350132625 9.531079318734793 10.390646153846154 7.815443309002433 12.261041909814324 6.851581508515816 14.797852519893897 6.851581508515816 17.442970822281165V87.21485411140583C6.851581508515816 89.86007427055702 7.815443309002433 92.39664721485411 9.531079318734793 94.26707692307693 11.246746472019465 96.13750663129971 13.573699270072993 97.18832891246684 16 97.18832891246684H28.18491484184915ZM21.333333333333332 122.10079575596816V104.657824933687H16C11.756535279805352 104.657824933687 7.686882725060827 102.81998938992041 4.686294890510949 99.54902917771882 1.6857101703163015 96.27772944297081 0 91.84084880636604 0 87.21485411140583V17.442970822281165C0 12.816806366047745 1.6857101703163015 8.380129442970821 4.686294890510949 5.108931564986737 7.686882725060827 1.8377370822281165 11.756535279805352 0 16 0H112C116.2433090024331 0 120.31314841849148 1.8377370822281165 123.31382968369829 5.108931564986737 126.314199513382 8.380129442970821 128 12.816806366047745 128 17.442970822281165V87.21485411140583C128 91.84084880636604 126.314199513382 96.27772944297081 123.31382968369829 99.54902917771882 120.31314841849148 102.81998938992041 116.2433090024331 104.657824933687 112 104.657824933687H60.266510948905115L29.49331776155718 126.92676923076922C28.70622676399027 127.48188859416445 27.79876593673966 127.8010397877984 26.862435036496354 127.85196816976128 25.92610413625304 127.90323607427054 24.993977615571776 127.68424403183023 24.159984428223844 127.21740053050397 23.30836399026764 126.72305570291776 22.59570608272506 125.9859522546419 22.09793868613139 125.08519893899204 21.600171289537716 124.18410610079576 21.335918248175183 123.15263660477453 21.333333333333332 122.10079575596816Z" class="hierarchical-1:primary "/><path d="M74.66666666666667 52.3289124668435H53.333333333333336C51.91879318734793 52.3289124668435 50.5621800486618 51.71641379310344 49.562160583941605 50.6258673740053 48.5618296836983 49.535660477453575 48 48.05670026525199 48 46.51458885941644V34.88594164456233C48 30.25977718832891 49.68580048661801 25.82310026525199 52.686170316301705 22.5519023872679 55.68685158150851 19.28070450928382 59.75669099756691 17.442970822281165 64 17.442970822281165 68.2433090024331 17.442970822281165 72.3131484184915 19.28070450928382 75.3138296836983 22.5519023872679 78.314199513382 25.82310026525199 80 30.25977718832891 80 34.88594164456233V46.51458885941644C80 48.05670026525199 79.43817031630171 49.535660477453575 78.4378394160584 50.6258673740053 77.4378199513382 51.71641379310344 76.08120681265207 52.3289124668435 74.66666666666667 52.3289124668435ZM58.66666666666667 40.700265251989386H69.33333333333333V34.88594164456233C69.33333333333333 33.343898143236075 68.77150364963504 31.865005835543766 67.77117274939174 30.77459522546419 66.77115328467153 29.684184615384613 65.4145401459854 29.071618037135277 64 29.071618037135277 62.5854598540146 29.071618037135277 61.22884671532847 29.684184615384613 60.22882725060827 30.77459522546419 59.22849635036496 31.865005835543766 58.66666666666667 33.343898143236075 58.66666666666667 34.88594164456233V40.700265251989386Z" class="hierarchical-1:primary "/><path d="M53.333333333333336 40.700265251989386H74.66666666666667C80.55778102189781 40.700265251989386 85.33333333333333 45.90650397877984 85.33333333333333 52.3289124668435V75.58620689655172C85.33333333333333 82.00861538461538 80.55778102189781 87.21485411140583 74.66666666666667 87.21485411140583H53.333333333333336C47.44221897810219 87.21485411140583 42.666666666666664 82.00861538461538 42.666666666666664 75.58620689655172V52.3289124668435C42.666666666666664 45.90650397877984 47.44221897810219 40.700265251989386 53.333333333333336 40.700265251989386ZM60.22882725060827 68.06883819628648C61.22884671532847 69.15938461538461 62.5854598540146 69.77188328912466 64 69.77188328912466 65.4145401459854 69.77188328912466 66.77115328467153 69.15938461538461 67.77117274939174 68.06883819628648 68.77150364963504 66.97863129973474 69.33333333333333 65.49967108753316 69.33333333333333 63.95755968169761 69.33333333333333 62.41544827586206 68.77150364963504 60.93648806366048 67.77117274939174 59.84628116710875 66.77115328467153 58.75573474801061 65.4145401459854 58.143236074270554 64 58.143236074270554 62.5854598540146 58.143236074270554 61.22884671532847 58.75573474801061 60.22882725060827 59.84628116710875 59.22849635036496 60.93648806366048 58.66666666666667 62.41544827586206 58.66666666666667 63.95755968169761 58.66666666666667 65.49967108753316 59.22849635036496 66.97863129973474 60.22882725060827 68.06883819628648Z" class="hierarchical-1:primary "/></g>
  <g id="Black-S" transform="matrix(1,0,0,1,2885.3999999999996,612.7705000000001)">

  <path d="M21.138686131386862 72.89124668435014V89.18119893899204L43.64963503649635 72.89124668435014H84C85.81979562043796 72.89124668435014 87.56484671532847 72.1031299734748 88.8516204379562 70.7003076923077 90.13839416058393 69.29748541114058 90.86131386861314 67.39505570291777 90.86131386861314 65.41114058355437V13.082228116710874C90.86131386861314 11.098389389920424 90.13839416058393 9.195781432360743 88.8516204379562 7.792984615384615 87.56484671532847 6.390213262599469 85.81979562043796 5.6021220159151195 84 5.6021220159151195H12C10.180274452554745 5.6021220159151195 8.435059854014598 6.390213262599469 7.148309489051095 7.792984615384615 5.8615824817518245 9.195781432360743 5.138686131386861 11.098389389920424 5.138686131386861 13.082228116710874V65.41114058355437C5.138686131386861 67.39505570291777 5.8615824817518245 69.29748541114058 7.148309489051095 70.7003076923077 8.435059854014598 72.1031299734748 10.180274452554745 72.89124668435014 12 72.89124668435014H21.138686131386862ZM16 91.57559681697613V78.49336870026525H12C8.817401459854013 78.49336870026525 5.76516204379562 77.11499204244032 3.5147211678832115 74.66177188328912 1.264282627737226 72.20829708222811 0 68.88063660477454 0 65.41114058355437V13.082228116710874C0 9.612604774535809 1.264282627737226 6.285097082228116 3.5147211678832115 3.831698673740053 5.76516204379562 1.3783028116710874 8.817401459854013 0 12 0H84C87.18248175182481 0 90.2348613138686 1.3783028116710874 92.48537226277371 3.831698673740053 94.7356496350365 6.285097082228116 96 9.612604774535809 96 13.082228116710874V65.41114058355437C96 68.88063660477454 94.7356496350365 72.20829708222811 92.48537226277371 74.66177188328912 90.2348613138686 77.11499204244032 87.18248175182481 78.49336870026525 84 78.49336870026525H45.19988321167883L22.11998832116788 95.19507692307693C21.5296700729927 95.61141644562333 20.849074452554742 95.8507798408488 20.146826277372263 95.88897612732096 19.44457810218978 95.9274270557029 18.74548321167883 95.76318302387267 18.11998832116788 95.41305039787798 17.48127299270073 95.04229177718832 16.946779562043794 94.48946419098142 16.57345401459854 93.81389920424404 16.200128467153284 93.13807957559682 16.00193868613139 92.3644774535809 16 91.57559681697613Z" class="hierarchical-1:primary "/><path d="M56 39.246684350132625H40C38.939094890510944 39.246684350132625 37.92163503649635 38.78731034482759 37.1716204379562 37.96940053050398 36.42137226277372 37.15174535809018 36 36.04252519893899 36 34.88594164456234V26.16445623342175C36 22.694832891246683 37.264350364963505 19.367325198938993 39.51462773722628 16.913926790450926 41.76513868613138 14.460528381962865 44.81751824817518 13.082228116710874 48 13.082228116710874 51.18248175182482 13.082228116710874 54.23486131386861 14.460528381962865 56.48537226277372 16.913926790450926 58.735649635036495 19.367325198938993 60 22.694832891246683 60 26.16445623342175V34.88594164456234C60 36.04252519893899 59.57862773722628 37.15174535809018 58.82837956204379 37.96940053050398 58.078364963503645 38.78731034482759 57.06090510948905 39.246684350132625 56 39.246684350132625ZM44 30.52519893899204H52V26.16445623342175C52 25.007923607427056 51.57862773722628 23.898754376657827 50.82837956204379 23.080946419098144 50.078364963503645 22.26313846153846 49.06090510948905 21.80371352785146 48 21.80371352785146 46.939094890510944 21.80371352785146 45.92163503649635 22.26313846153846 45.1716204379562 23.080946419098144 44.42137226277372 23.898754376657827 44 25.007923607427056 44 26.16445623342175V30.52519893899204Z" class="hierarchical-1:primary "/><path d="M40 30.52519893899204H56C60.418335766423354 30.52519893899204 64 34.42987798408488 64 39.246684350132625V56.689655172413794C64 61.50646153846154 60.418335766423354 65.41114058355437 56 65.41114058355437H40C35.58166423357664 65.41114058355437 32 61.50646153846154 32 56.689655172413794V39.246684350132625C32 34.42987798408488 35.58166423357664 30.52519893899204 40 30.52519893899204ZM45.1716204379562 51.051628647214855C45.92163503649635 51.86953846153846 46.939094890510944 52.3289124668435 48 52.3289124668435 49.06090510948905 52.3289124668435 50.078364963503645 51.86953846153846 50.82837956204379 51.051628647214855 51.57862773722628 50.23397347480106 52 49.12475331564987 52 47.96816976127321 52 46.81158620689655 51.57862773722628 45.70236604774536 50.82837956204379 44.884710875331564 50.078364963503645 44.06680106100796 49.06090510948905 43.60742705570292 48 43.60742705570292 46.939094890510944 43.60742705570292 45.92163503649635 44.06680106100796 45.1716204379562 44.884710875331564 44.42137226277372 45.70236604774536 44 46.81158620689655 44 47.96816976127321 44 49.12475331564987 44.42137226277372 50.23397347480106 45.1716204379562 51.051628647214855Z" class="hierarchical-1:primary "/></g>
  <g id="Regular-S" transform="matrix(1,0,0,1,1401.845,612.7705000000001)">

  <path d="M21.138686131386862 72.89124668435014V89.18119893899204L43.64963503649635 72.89124668435014H84C85.81979562043796 72.89124668435014 87.56484671532847 72.1031299734748 88.8516204379562 70.7003076923077 90.13839416058393 69.29748541114058 90.86131386861314 67.39505570291777 90.86131386861314 65.41114058355437V13.082228116710874C90.86131386861314 11.098389389920424 90.13839416058393 9.195781432360743 88.8516204379562 7.792984615384615 87.56484671532847 6.390213262599469 85.81979562043796 5.6021220159151195 84 5.6021220159151195H12C10.180274452554745 5.6021220159151195 8.435059854014598 6.390213262599469 7.148309489051095 7.792984615384615 5.8615824817518245 9.195781432360743 5.138686131386861 11.098389389920424 5.138686131386861 13.082228116710874V65.41114058355437C5.138686131386861 67.39505570291777 5.8615824817518245 69.29748541114058 7.148309489051095 70.7003076923077 8.435059854014598 72.1031299734748 10.180274452554745 72.89124668435014 12 72.89124668435014H21.138686131386862ZM16 91.57559681697613V78.49336870026525H12C8.817401459854013 78.49336870026525 5.76516204379562 77.11499204244032 3.5147211678832115 74.66177188328912 1.264282627737226 72.20829708222811 0 68.88063660477454 0 65.41114058355437V13.082228116710874C0 9.612604774535809 1.264282627737226 6.285097082228116 3.5147211678832115 3.831698673740053 5.76516204379562 1.3783028116710874 8.817401459854013 0 12 0H84C87.18248175182481 0 90.2348613138686 1.3783028116710874 92.48537226277371 3.831698673740053 94.7356496350365 6.285097082228116 96 9.612604774535809 96 13.082228116710874V65.41114058355437C96 68.88063660477454 94.7356496350365 72.20829708222811 92.48537226277371 74.66177188328912 90.2348613138686 77.11499204244032 87.18248175182481 78.49336870026525 84 78.49336870026525H45.19988321167883L22.11998832116788 95.19507692307693C21.5296700729927 95.61141644562333 20.849074452554742 95.8507798408488 20.146826277372263 95.88897612732096 19.44457810218978 95.9274270557029 18.74548321167883 95.76318302387267 18.11998832116788 95.41305039787798 17.48127299270073 95.04229177718832 16.946779562043794 94.48946419098142 16.57345401459854 93.81389920424404 16.200128467153284 93.13807957559682 16.00193868613139 92.3644774535809 16 91.57559681697613Z" class="hierarchical-1:primary "/><path d="M56 39.246684350132625H40C38.939094890510944 39.246684350132625 37.92163503649635 38.78731034482759 37.1716204379562 37.96940053050398 36.42137226277372 37.15174535809018 36 36.04252519893899 36 34.88594164456234V26.16445623342175C36 22.694832891246683 37.264350364963505 19.367325198938993 39.51462773722628 16.913926790450926 41.76513868613138 14.460528381962865 44.81751824817518 13.082228116710874 48 13.082228116710874 51.18248175182482 13.082228116710874 54.23486131386861 14.460528381962865 56.48537226277372 16.913926790450926 58.735649635036495 19.367325198938993 60 22.694832891246683 60 26.16445623342175V34.88594164456234C60 36.04252519893899 59.57862773722628 37.15174535809018 58.82837956204379 37.96940053050398 58.078364963503645 38.78731034482759 57.06090510948905 39.246684350132625 56 39.246684350132625ZM44 30.52519893899204H52V26.16445623342175C52 25.007923607427056 51.57862773722628 23.898754376657827 50.82837956204379 23.080946419098144 50.078364963503645 22.26313846153846 49.06090510948905 21.80371352785146 48 21.80371352785146 46.939094890510944 21.80371352785146 45.92163503649635 22.26313846153846 45.1716204379562 23.080946419098144 44.42137226277372 23.898754376657827 44 25.007923607427056 44 26.16445623342175V30.52519893899204Z" class="hierarchical-1:primary "/><path d="M40 30.52519893899204H56C60.418335766423354 30.52519893899204 64 34.42987798408488 64 39.246684350132625V56.689655172413794C64 61.50646153846154 60.418335766423354 65.41114058355437 56 65.41114058355437H40C35.58166423357664 65.41114058355437 32 61.50646153846154 32 56.689655172413794V39.246684350132625C32 34.42987798408488 35.58166423357664 30.52519893899204 40 30.52519893899204ZM45.1716204379562 51.051628647214855C45.92163503649635 51.86953846153846 46.939094890510944 52.3289124668435 48 52.3289124668435 49.06090510948905 52.3289124668435 50.078364963503645 51.86953846153846 50.82837956204379 51.051628647214855 51.57862773722628 50.23397347480106 52 49.12475331564987 52 47.96816976127321 52 46.81158620689655 51.57862773722628 45.70236604774536 50.82837956204379 44.884710875331564 50.078364963503645 44.06680106100796 49.06090510948905 43.60742705570292 48 43.60742705570292 46.939094890510944 43.60742705570292 45.92163503649635 44.06680106100796 45.1716204379562 44.884710875331564 44.42137226277372 45.70236604774536 44 46.81158620689655 44 47.96816976127321 44 49.12475331564987 44.42137226277372 50.23397347480106 45.1716204379562 51.051628647214855Z" class="hierarchical-1:primary "/></g>
  <g id="Ultralight-S" transform="matrix(1,0,0,1,511.711,612.7705000000001)">

  <path d="M21.138686131386862 72.89124668435014V89.18119893899204L43.64963503649635 72.89124668435014H84C85.81979562043796 72.89124668435014 87.56484671532847 72.1031299734748 88.8516204379562 70.7003076923077 90.13839416058393 69.29748541114058 90.86131386861314 67.39505570291777 90.86131386861314 65.41114058355437V13.082228116710874C90.86131386861314 11.098389389920424 90.13839416058393 9.195781432360743 88.8516204379562 7.792984615384615 87.56484671532847 6.390213262599469 85.81979562043796 5.6021220159151195 84 5.6021220159151195H12C10.180274452554745 5.6021220159151195 8.435059854014598 6.390213262599469 7.148309489051095 7.792984615384615 5.8615824817518245 9.195781432360743 5.138686131386861 11.098389389920424 5.138686131386861 13.082228116710874V65.41114058355437C5.138686131386861 67.39505570291777 5.8615824817518245 69.29748541114058 7.148309489051095 70.7003076923077 8.435059854014598 72.1031299734748 10.180274452554745 72.89124668435014 12 72.89124668435014H21.138686131386862ZM16 91.57559681697613V78.49336870026525H12C8.817401459854013 78.49336870026525 5.76516204379562 77.11499204244032 3.5147211678832115 74.66177188328912 1.264282627737226 72.20829708222811 0 68.88063660477454 0 65.41114058355437V13.082228116710874C0 9.612604774535809 1.264282627737226 6.285097082228116 3.5147211678832115 3.831698673740053 5.76516204379562 1.3783028116710874 8.817401459854013 0 12 0H84C87.18248175182481 0 90.2348613138686 1.3783028116710874 92.48537226277371 3.831698673740053 94.7356496350365 6.285097082228116 96 9.612604774535809 96 13.082228116710874V65.41114058355437C96 68.88063660477454 94.7356496350365 72.20829708222811 92.48537226277371 74.66177188328912 90.2348613138686 77.11499204244032 87.18248175182481 78.49336870026525 84 78.49336870026525H45.19988321167883L22.11998832116788 95.19507692307693C21.5296700729927 95.61141644562333 20.849074452554742 95.8507798408488 20.146826277372263 95.88897612732096 19.44457810218978 95.9274270557029 18.74548321167883 95.76318302387267 18.11998832116788 95.41305039787798 17.48127299270073 95.04229177718832 16.946779562043794 94.48946419098142 16.57345401459854 93.81389920424404 16.200128467153284 93.13807957559682 16.00193868613139 92.3644774535809 16 91.57559681697613Z" class="hierarchical-1:primary "/><path d="M56 39.246684350132625H40C38.939094890510944 39.246684350132625 37.92163503649635 38.78731034482759 37.1716204379562 37.96940053050398 36.42137226277372 37.15174535809018 36 36.04252519893899 36 34.88594164456234V26.16445623342175C36 22.694832891246683 37.264350364963505 19.367325198938993 39.51462773722628 16.913926790450926 41.76513868613138 14.460528381962865 44.81751824817518 13.082228116710874 48 13.082228116710874 51.18248175182482 13.082228116710874 54.23486131386861 14.460528381962865 56.48537226277372 16.913926790450926 58.735649635036495 19.367325198938993 60 22.694832891246683 60 26.16445623342175V34.88594164456234C60 36.04252519893899 59.57862773722628 37.15174535809018 58.82837956204379 37.96940053050398 58.078364963503645 38.78731034482759 57.06090510948905 39.246684350132625 56 39.246684350132625ZM44 30.52519893899204H52V26.16445623342175C52 25.007923607427056 51.57862773722628 23.898754376657827 50.82837956204379 23.080946419098144 50.078364963503645 22.26313846153846 49.06090510948905 21.80371352785146 48 21.80371352785146 46.939094890510944 21.80371352785146 45.92163503649635 22.26313846153846 45.1716204379562 23.080946419098144 44.42137226277372 23.898754376657827 44 25.007923607427056 44 26.16445623342175V30.52519893899204Z" class="hierarchical-1:primary "/><path d="M40 30.52519893899204H56C60.418335766423354 30.52519893899204 64 34.42987798408488 64 39.246684350132625V56.689655172413794C64 61.50646153846154 60.418335766423354 65.41114058355437 56 65.41114058355437H40C35.58166423357664 65.41114058355437 32 61.50646153846154 32 56.689655172413794V39.246684350132625C32 34.42987798408488 35.58166423357664 30.52519893899204 40 30.52519893899204ZM45.1716204379562 51.051628647214855C45.92163503649635 51.86953846153846 46.939094890510944 52.3289124668435 48 52.3289124668435 49.06090510948905 52.3289124668435 50.078364963503645 51.86953846153846 50.82837956204379 51.051628647214855 51.57862773722628 50.23397347480106 52 49.12475331564987 52 47.96816976127321 52 46.81158620689655 51.57862773722628 45.70236604774536 50.82837956204379 44.884710875331564 50.078364963503645 44.06680106100796 49.06090510948905 43.60742705570292 48 43.60742705570292 46.939094890510944 43.60742705570292 45.92163503649635 44.06680106100796 45.1716204379562 44.884710875331564 44.42137226277372 45.70236604774536 44 46.81158620689655 44 47.96816976127321 44 49.12475331564987 44.42137226277372 50.23397347480106 45.1716204379562 51.051628647214855Z" class="hierarchical-1:primary "/></g>
 </g>
</svg>