<svg width="1024" height="1024" viewBox="0 0 1024 1024" fill="none" xmlns="http://www.w3.org/2000/svg">
<g filter="url(#filter0_d_1_2)">
<rect x="100" y="100" width="824" height="824" rx="184" fill="white"/>
<rect x="100" y="100" width="824" height="824" rx="184" fill="url(#paint0_linear_1_2)"/>
</g>
<g filter="url(#filter1_d_1_2)">
<g clip-path="url(#clip0_1_2)">
<path d="M375.537 657H648.463C681.593 657 698 640.776 698 608.325V415.832C698 383.382 681.593 367 648.463 367H375.537C342.565 367 326 383.382 326 415.832V608.325C326 640.776 342.565 657 375.537 657ZM375.853 631.638C360.076 631.638 351.4 623.291 351.4 606.907V417.25C351.4 400.868 360.076 392.361 375.853 392.361H648.148C663.767 392.361 672.602 400.868 672.602 417.25V606.907C672.602 623.291 663.767 631.638 648.148 631.638H375.853Z" fill="white" fill-opacity="0.85"/>
<path d="M455.049 573.985C455.049 585.801 460.255 591.312 471.298 591.312H553.018C563.904 591.312 569.109 585.801 569.109 573.985V511.291C569.109 500.265 564.534 494.909 555.228 494.279V475.534C555.228 446.549 537.873 427.174 512.158 427.174C486.443 427.174 469.089 446.549 469.089 475.534V494.279C459.624 494.909 455.049 500.265 455.049 511.291V573.985ZM485.497 494.121V473.801C485.497 455.371 496.066 443.084 512.158 443.084C528.093 443.084 538.819 455.371 538.819 473.801V494.121H485.497Z" fill="white" fill-opacity="0.85"/>
</g>
</g>
<defs>
<filter id="filter0_d_1_2" x="78" y="89" width="868" height="868" filterUnits="userSpaceOnUse" color-interpolation-filters="sRGB">
<feFlood flood-opacity="0" result="BackgroundImageFix"/>
<feColorMatrix in="SourceAlpha" type="matrix" values="0 0 0 0 0 0 0 0 0 0 0 0 0 0 0 0 0 0 127 0" result="hardAlpha"/>
<feOffset dy="11"/>
<feGaussianBlur stdDeviation="11"/>
<feColorMatrix type="matrix" values="0 0 0 0 0 0 0 0 0 0 0 0 0 0 0 0 0 0 0.28 0"/>
<feBlend mode="normal" in2="BackgroundImageFix" result="effect1_dropShadow_1_2"/>
<feBlend mode="normal" in="SourceGraphic" in2="effect1_dropShadow_1_2" result="shape"/>
</filter>
<filter id="filter1_d_1_2" x="254" y="256" width="516" height="516" filterUnits="userSpaceOnUse" color-interpolation-filters="sRGB">
<feFlood flood-opacity="0" result="BackgroundImageFix"/>
<feColorMatrix in="SourceAlpha" type="matrix" values="0 0 0 0 0 0 0 0 0 0 0 0 0 0 0 0 0 0 127 0" result="hardAlpha"/>
<feOffset dy="2"/>
<feGaussianBlur stdDeviation="4"/>
<feColorMatrix type="matrix" values="0 0 0 0 0 0 0 0 0 0 0 0 0 0 0 0 0 0 0.22 0"/>
<feBlend mode="normal" in2="BackgroundImageFix" result="effect1_dropShadow_1_2"/>
<feBlend mode="normal" in="SourceGraphic" in2="effect1_dropShadow_1_2" result="shape"/>
</filter>
<linearGradient id="paint0_linear_1_2" x1="512" y1="100" x2="512" y2="924" gradientUnits="userSpaceOnUse">
<stop stop-color="#5C8374"/>
<stop offset="1" stop-color="#092635"/>
</linearGradient>
<clipPath id="clip0_1_2">
<rect width="372" height="290" fill="white" transform="translate(326 367)"/>
</clipPath>
</defs>
</svg>
