<svg width="411" height="377" viewBox="0 0 411 377" fill="none" xmlns="http://www.w3.org/2000/svg">
<path d="M79.5 308.25V297.25H68.5H51.375C40.6669 297.25 30.3973 292.996 22.8256 285.424C15.2538 277.853 11 267.583 11 256.875V51.375C11 40.6669 15.2538 30.3973 22.8256 22.8256C30.3973 15.2538 40.6669 11 51.375 11H359.625C370.333 11 380.603 15.2538 388.174 22.8256C395.746 30.3973 400 40.6669 400 51.375V256.875C400 267.583 395.746 277.853 388.174 285.424C380.603 292.996 370.333 297.25 359.625 297.25H193.512H190.194L187.429 299.085L88.6841 364.63C87.7899 365.198 86.7632 365.525 85.7043 365.578C84.6564 365.631 83.6129 365.413 82.6739 364.947C81.7278 364.426 80.9356 363.665 80.3781 362.739C79.8082 361.793 79.5049 360.711 79.5 359.606V308.25Z" stroke="black" stroke-width="22"/>
<path d="M180.375 119.875V127.875H188.375H222.625H230.625V119.875V102.75C230.625 96.0864 227.978 89.6958 223.266 84.9839C218.554 80.2721 212.164 77.625 205.5 77.625C198.836 77.625 192.446 80.2721 187.734 84.9839C183.022 89.6958 180.375 96.0864 180.375 102.75V119.875ZM239.75 146.125H171.25C168.83 146.125 166.509 145.164 164.798 143.452C163.086 141.741 162.125 139.42 162.125 137V102.75C162.125 91.2462 166.695 80.2136 174.829 72.0792C182.964 63.9448 193.996 59.375 205.5 59.375C217.004 59.375 228.036 63.9448 236.171 72.0792C244.305 80.2136 248.875 91.2462 248.875 102.75V137C248.875 139.42 247.914 141.741 246.202 143.452C244.491 145.164 242.17 146.125 239.75 146.125Z" fill="#0D1A30" stroke="black" stroke-width="16"/>
<mask id="path-3-inside-1_1564_178" fill="white">
<path fill-rule="evenodd" clip-rule="evenodd" d="M171.25 119.875H239.75C258.666 119.875 274 135.209 274 154.125V222.625C274 241.541 258.666 256.875 239.75 256.875H171.25C152.334 256.875 137 241.541 137 222.625V154.125C137 135.209 152.334 119.875 171.25 119.875ZM193.391 200.484C196.602 203.696 200.958 205.5 205.5 205.5C210.042 205.5 214.398 203.696 217.609 200.484C220.821 197.273 222.625 192.917 222.625 188.375C222.625 183.833 220.821 179.477 217.609 176.266C214.398 173.054 210.042 171.25 205.5 171.25C200.958 171.25 196.602 173.054 193.391 176.266C190.179 179.477 188.375 183.833 188.375 188.375C188.375 192.917 190.179 197.273 193.391 200.484Z"/>
</mask>
<path fill-rule="evenodd" clip-rule="evenodd" d="M171.25 119.875H239.75C258.666 119.875 274 135.209 274 154.125V222.625C274 241.541 258.666 256.875 239.75 256.875H171.25C152.334 256.875 137 241.541 137 222.625V154.125C137 135.209 152.334 119.875 171.25 119.875ZM193.391 200.484C196.602 203.696 200.958 205.5 205.5 205.5C210.042 205.5 214.398 203.696 217.609 200.484C220.821 197.273 222.625 192.917 222.625 188.375C222.625 183.833 220.821 179.477 217.609 176.266C214.398 173.054 210.042 171.25 205.5 171.25C200.958 171.25 196.602 173.054 193.391 176.266C190.179 179.477 188.375 183.833 188.375 188.375C188.375 192.917 190.179 197.273 193.391 200.484Z" fill="black"/>
<path d="M193.391 200.484L204.705 189.171L204.704 189.17L193.391 200.484ZM217.609 200.484L206.296 189.17L206.295 189.171L217.609 200.484ZM217.609 176.266L206.295 187.579L206.296 187.58L217.609 176.266ZM193.391 176.266L204.705 187.58L204.705 187.58L193.391 176.266ZM239.75 103.875H171.25V135.875H239.75V103.875ZM290 154.125C290 126.373 267.502 103.875 239.75 103.875V135.875C249.829 135.875 258 144.046 258 154.125H290ZM290 222.625V154.125H258V222.625H290ZM239.75 272.875C267.502 272.875 290 250.377 290 222.625H258C258 232.704 249.829 240.875 239.75 240.875V272.875ZM171.25 272.875H239.75V240.875H171.25V272.875ZM121 222.625C121 250.377 143.498 272.875 171.25 272.875V240.875C161.171 240.875 153 232.704 153 222.625H121ZM121 154.125V222.625H153V154.125H121ZM171.25 103.875C143.498 103.875 121 126.373 121 154.125H153C153 144.046 161.171 135.875 171.25 135.875V103.875ZM205.5 189.5C205.202 189.5 204.915 189.381 204.705 189.171L182.077 211.798C188.289 218.01 196.715 221.5 205.5 221.5V189.5ZM206.295 189.171C206.085 189.381 205.798 189.5 205.5 189.5V221.5C214.285 221.5 222.711 218.01 228.923 211.798L206.295 189.171ZM206.625 188.375C206.625 188.673 206.506 188.96 206.296 189.17L228.923 211.798C235.135 205.586 238.625 197.16 238.625 188.375H206.625ZM206.296 187.58C206.506 187.79 206.625 188.077 206.625 188.375H238.625C238.625 179.59 235.135 171.164 228.923 164.952L206.296 187.58ZM205.5 187.25C205.798 187.25 206.085 187.369 206.295 187.579L228.923 164.952C222.711 158.74 214.285 155.25 205.5 155.25V187.25ZM204.705 187.58C204.915 187.369 205.202 187.25 205.5 187.25V155.25C196.715 155.25 188.289 158.74 182.077 164.952L204.705 187.58ZM204.375 188.375C204.375 188.077 204.494 187.79 204.705 187.58L182.077 164.952C175.865 171.164 172.375 179.59 172.375 188.375H204.375ZM204.704 189.17C204.494 188.96 204.375 188.673 204.375 188.375H172.375C172.375 197.16 175.865 205.586 182.077 211.798L204.704 189.17Z" fill="black" mask="url(#path-3-inside-1_1564_178)"/>
</svg>
